PathFileType	4	(X/Y/Z)	C:/Users/opensim2020/Desktop/walking_exp_matlab/subject01_walking06_straight_01.trc	
DataRate	CameraRate	NumFrames	NumMarkers	Units	OrigDataRate	OrigDataStartFrame	OrigNumFrames	
100.00	100.00	4	43	mm	100.00	922	251	
Frame#	Time	LFHD			RFHD			LBHD			RBHD			C7			T10			CLAV			STRN			RBAK			LSHO			LUPA			LELB			LFRM			LWRA			LWRB			LFIN			RSHO			RUPA			RELB			RFRM			RWRA			RWRB			RFIN			LASI			RASI			LPSI			RPSI			LTHI			LKNE			LTIB			LANK			LHEE			LTOE			RTHI			RKNE			RTIB			RANK			RHEE			RTOE			*39			*40			*41			*42			
		X1	Y1	Z1	X2	Y2	Z2	X3	Y3	Z3	X4	Y4	Z4	X5	Y5	Z5	X6	Y6	Z6	X7	Y7	Z7	X8	Y8	Z8	X9	Y9	Z9	X10	Y10	Z10	X11	Y11	Z11	X12	Y12	Z12	X13	Y13	Z13	X14	Y14	Z14	X15	Y15	Z15	X16	Y16	Z16	X17	Y17	Z17	X18	Y18	Z18	X19	Y19	Z19	X20	Y20	Z20	X21	Y21	Z21	X22	Y22	Z22	X23	Y23	Z23	X24	Y24	Z24	X25	Y25	Z25	X26	Y26	Z26	X27	Y27	Z27	X28	Y28	Z28	X29	Y29	Z29	X30	Y30	Z30	X31	Y31	Z31	X32	Y32	Z32	X33	Y33	Z33	X34	Y34	Z34	X35	Y35	Z35	X36	Y36	Z36	X37	Y37	Z37	X38	Y38	Z38	X39	Y39	Z39	X40	Y40	Z40	X41	Y41	Z41	X42	Y42	Z42	X43	Y43	Z43	

157	1.560	1451.07751	-29.84519	1676.24792	1561.73169	-2.43370	1684.72058	1473.18347	-125.96952	1598.56836	1590.53027	-99.24799	1605.74451	1498.38757	-125.32519	1427.09778	1494.58337	-148.57362	1133.29358	1495.30188	20.84173	1365.47986	1483.35510	70.81850	1211.78833	1566.97876	-171.50742	1227.76208	1336.60510	-41.33767	1397.83813	1243.04993	-59.05735	1217.94385	1233.38452	-58.68107	1064.07410	1210.78430	12.29922	970.86157	1231.78687	122.66122	888.14453	1208.21094	73.16992	865.03857	1200.74170	141.46095	814.95581	1648.16638	-43.22435	1383.80273	1737.98584	-103.85979	1179.06458	1736.02454	-102.83060	1055.47607	1764.67188	-82.35426	937.02429	1748.64038	-7.07616	817.06757	1783.87842	-53.73503	819.06641	1783.20667	-20.45401	740.06738	1377.43884	26.20325	931.35437	1592.98877	37.69963	936.63861	1438.35815	-157.10193	937.98358	1584.22290	-148.59920	944.11615	1314.93848	12.24263	594.56189	1319.09607	-3.56211	461.27252	1308.35046	-154.64711	354.12973	1354.36169	-319.56345	212.39951	1410.92139	-355.34430	234.68745	1358.29919	-300.83319	62.42385	1645.78564	25.70537	603.42462	1614.20215	58.52930	449.52518	1619.17603	20.32647	276.12277	1564.33203	10.39139	73.09228	1515.56653	-38.44130	35.41537	1561.74268	151.71886	36.05800	1543.18994	-27.45486	1713.19080	-3101.90601	1973.03650	1023.94122	-3140.70996	2012.60693	1022.13629			 
158	1.570	1452.38611	-20.83865	1677.01147	1562.92651	6.58688	1685.40906	1474.43250	-116.68410	1599.04260	1591.75879	-89.95219	1606.17493	1499.52649	-115.61311	1427.86938	1496.35486	-139.38412	1134.15491	1496.19080	30.53611	1366.15222	1484.31787	80.25266	1212.33630	1568.88098	-161.96625	1228.84485	1337.54065	-31.99413	1398.35889	1244.57117	-51.53420	1218.32031	1235.19934	-51.71698	1064.38879	1212.63159	16.42303	969.94617	1233.31274	125.32538	885.17938	1209.94690	75.30808	862.98944	1202.41443	142.46144	811.36078	1649.15564	-32.95882	1384.66577	1740.09436	-91.99477	1179.99841	1738.29565	-90.74009	1056.31909	1766.77869	-68.79014	937.98505	1750.33350	7.75079	818.94678	1786.05994	-38.65950	820.50647	1784.86975	-4.33634	741.79584	1378.79431	35.22187	931.93079	1594.72083	46.09769	936.80133	1439.39514	-148.18182	937.99146	1585.18152	-140.23051	944.40826	1315.41687	27.77888	596.37921	1319.99597	15.38704	463.22812	1308.36829	-134.85287	355.81415	1356.04871	-301.46994	217.07056	1413.62878	-337.19040	238.43233	1355.66907	-282.79913	67.19437	1646.71521	30.81900	603.39032	1615.34998	61.83889	449.21378	1619.41028	21.76516	275.74591	1564.37256	10.55764	73.05022	1515.33411	-38.49847	35.36434	1561.73682	151.84206	35.90457	1544.49927	-18.40834	1713.92078	-3101.92798	1973.19141	1023.32690	-3140.70093	2012.59729	1022.05090			 
159	1.580	1453.43250	-11.84260	1677.66614	1564.08777	15.76133	1686.17761	1475.50110	-107.58780	1599.51099	1592.87769	-80.61437	1606.59460	1500.82861	-105.91106	1428.72058	1497.99341	-130.32684	1135.06042	1496.88049	40.15031	1366.62183	1484.99451	87.98857	1212.48315	1570.65881	-152.52713	1229.93201	1338.45886	-22.72236	1398.91602	1246.21997	-44.17006	1218.71521	1237.09973	-46.06099	1064.96790	1214.37219	20.57173	969.16217	1234.78918	127.75935	882.21906	1211.64050	77.21947	860.90729	1203.98352	143.48274	808.09161	1650.09924	-22.68676	1385.52856	1742.10620	-80.15809	1180.92468	1740.48401	-78.54362	1057.14465	1768.94202	-55.08182	939.04645	1751.97168	22.77859	820.98132	1787.85144	-23.26874	821.86407	1786.78943	12.01092	743.72693	1380.02283	44.16056	932.53107	1596.49414	54.33310	936.98077	1440.31140	-139.44980	938.24561	1585.90649	-131.75858	944.54938	1315.78235	43.01810	598.45557	1320.75903	34.15180	465.47012	1308.98169	-114.98937	357.62854	1358.02771	-282.84415	220.93311	1416.49756	-318.31973	240.50348	1352.94812	-262.83023	71.30132	1647.52551	35.69928	603.31824	1616.31628	65.07145	448.72546	1619.99670	23.62064	275.53659	1564.39294	10.70438	73.10495	1515.41089	-38.45245	35.51048	1561.76672	151.91803	35.79221	1545.65466	-9.42382	1714.55408	-3101.96704	1973.05957	1023.55475	-3140.78809	2012.58960	1022.04974			 
160	1.590	1454.51160	-2.51766	1678.30811	1565.01355	24.73835	1686.77148	1476.57507	-98.09393	1599.80762	1593.89514	-71.25781	1607.00317	1502.00232	-96.32368	1429.46631	1499.50696	-121.59784	1136.19568	1497.65051	49.79549	1367.03503	1485.98096	97.31015	1212.78503	1572.24146	-143.10338	1230.99341	1339.39893	-13.45292	1399.49915	1247.69958	-36.79973	1219.04907	1238.95386	-39.77857	1065.64685	1216.12280	24.76228	968.48291	1236.24988	130.17610	879.36078	1213.34985	79.02377	859.06555	1205.68396	144.24373	804.66309	1650.93042	-12.55427	1386.37598	1744.12817	-68.23667	1181.92407	1742.70715	-66.28242	1058.01038	1771.02795	-41.32132	940.12305	1753.47327	37.68886	822.93085	1789.95593	-7.89794	823.45203	1788.61816	28.41476	745.75372	1381.53271	53.78487	933.47699	1598.28137	62.48554	937.19427	1441.07202	-130.73138	938.67944	1586.56006	-123.62815	944.79565	1316.18860	57.98095	600.74146	1321.56372	52.87331	468.10831	1310.04236	-95.44211	359.75119	1360.10620	-263.55307	223.91418	1419.54578	-299.16794	241.47203	1350.43762	-241.59521	74.96740	1648.33545	40.55118	603.36664	1617.09448	68.38345	448.28604	1620.66162	25.62988	275.65140	1564.43225	10.75627	73.09768	1515.39392	-38.49580	35.69682	1561.78882	152.00516	35.71330	1546.61890	-0.45283	1715.13733	-3101.86841	1973.14026	1023.32153	-3140.68262	2012.60193	1022.03412			 
